<?xml version="1.0" encoding="UTF-8"?>
<svg version="1.1" xmlns="http://www.w3.org/2000/svg" width="800" height="800">
<path d="M0 0 C1.82223622 -0.00913828 3.64445617 -0.0230614 5.46661377 -0.04229736 C15.74281199 -0.13870056 25.24002866 0.47960357 35.29666138 2.61032104 C40.52882231 3.60798485 45.65678019 3.73560198 50.96853638 3.79855347 C75.21093903 4.49157432 96.6688927 11.89371308 114.90603638 28.29855347 C115.96757935 29.23634644 115.96757935 29.23634644 117.05056763 30.19308472 C132.74812801 44.89987206 143.33101964 67.77039265 144.03598821 89.25985843 C144.04335982 90.73680994 144.04539312 92.21379447 144.04305077 93.69076252 C144.04570259 94.51301633 144.04835442 95.33527014 144.0510866 96.18244073 C144.05874565 98.93749063 144.05933747 101.69249572 144.05993652 104.44755554 C144.06395334 106.44287425 144.06839193 108.43819214 144.07321608 110.43350905 C144.08516219 115.9167486 144.09082543 121.39997937 144.09539723 126.88322937 C144.10136046 132.79678747 144.11296819 138.71033509 144.12368774 144.62388611 C144.14819043 158.90218713 144.16283343 173.1804935 144.17574781 187.45880869 C144.1794198 191.49106284 144.18342253 195.52331661 144.18750048 199.55557036 C144.21275765 224.59459094 144.23480077 249.6336122 144.24722862 274.67264271 C144.25014982 280.4699027 144.25311738 286.26716267 144.25613403 292.06442261 C144.25650494 292.78463868 144.25687585 293.50485475 144.257258 294.24689554 C144.2694172 317.60512905 144.30037053 340.96328728 144.34205556 364.32148542 C144.38484687 388.34343056 144.41146984 412.36533593 144.41670334 436.38732022 C144.41744376 439.78029998 144.41835444 443.17327969 144.41936111 446.56625938 C144.41955173 447.23400448 144.41974234 447.90174958 144.41993873 448.58972938 C144.42323353 458.66665279 144.4405164 468.74349124 144.46525192 478.82038307 C144.49322659 490.28239632 144.50426288 501.74426629 144.49305646 513.20631102 C144.48786385 519.05465759 144.49079644 524.90270396 144.515522 530.75100708 C144.53797295 536.1059274 144.53730658 541.46033114 144.51831813 546.81526025 C144.51551239 548.75129319 144.52114843 550.68736085 144.53613107 552.62333784 C144.68371689 572.93731129 144.68371689 572.93731129 137.19649732 581.18076068 C131.85344758 586.36492112 125.87898567 588.41522751 118.53103638 588.73605347 C107.7041867 588.32077704 100.42601375 582.74558683 92.07791138 576.41574097 C87.72255134 573.12534742 83.23655608 570.04759102 78.71853638 566.98605347 C72.16458385 562.53214201 65.64203833 558.03841247 59.15603638 553.48605347 C51.91782847 548.40644727 44.66762333 543.34468964 37.40603638 538.29855347 C29.41446967 532.74397551 21.4346735 527.17302236 13.46463013 521.58761597 C7.1212558 517.14423807 0.76550949 512.71885302 -5.59396362 508.29855347 C-13.57895608 502.74839892 -21.55307979 497.18314931 -29.51559448 491.60079956 C-34.02573252 488.44060117 -38.5423499 485.2900565 -43.06661987 482.15011597 C-44.08046753 481.44628784 -45.09431519 480.74245972 -46.1388855 480.01730347 C-48.08084652 478.66987161 -50.02349983 477.32343668 -51.9670105 475.97824097 C-52.86613159 475.35433472 -53.76525269 474.73042847 -54.69161987 474.08761597 C-55.57607788 473.47692261 -56.46053589 472.86622925 -57.37179565 472.23703003 C-59.29336709 470.86866436 -61.18254823 469.45425682 -63.04660034 468.0085144 C-64.49123657 466.8952478 -64.49123657 466.8952478 -65.96505737 465.75949097 C-66.82929321 465.07419312 -67.69352905 464.38889526 -68.58395386 463.68283081 C-70.99080829 462.07044891 -70.99080829 462.07044891 -73.6545105 462.41549683 C-76.19595985 463.33547504 -78.06224383 464.39028081 -80.25411987 465.96652222 C-81.03698364 466.52259155 -81.81984741 467.07866089 -82.62643433 467.65158081 C-83.46134399 468.25695679 -84.29625366 468.86233276 -85.15646362 469.48605347 C-86.96360953 470.77401842 -88.77090526 472.06177318 -90.57833862 473.34933472 C-91.49808472 474.00885132 -92.41783081 474.66836792 -93.365448 475.34786987 C-97.52404244 478.32095234 -101.71505212 481.24701326 -105.90646362 484.17355347 C-107.56923123 485.3376057 -109.23199152 486.50166837 -110.89474487 487.66574097 C-117.4299652 492.23552841 -123.97879678 496.78572211 -130.52682495 501.33712769 C-136.72403388 505.64601488 -142.91274882 509.96675814 -149.09396362 514.29855347 C-157.22543904 519.99709144 -165.37420287 525.67043747 -173.52755737 531.33761597 C-179.72450465 535.64636588 -185.91295926 539.96696888 -192.09396362 544.29855347 C-200.1450764 549.94003331 -208.20755133 555.56497455 -216.28366089 561.17062378 C-221.32869736 564.67318809 -226.36360391 568.18904404 -231.38302612 571.72824097 C-232.41258423 572.45156616 -233.44214233 573.17489136 -234.50289917 573.9201355 C-236.46575049 575.29959038 -238.42573904 576.68313136 -240.3822937 578.07150269 C-250.76727481 585.35437917 -258.00383352 589.06381997 -271.09396362 587.29855347 C-278.63723142 584.77799813 -284.36191335 580.37254424 -288.09396362 573.29855347 C-290.02145481 568.51016704 -290.37819848 564.17321408 -290.34843922 559.07459354 C-290.35324893 557.85025569 -290.35324893 557.85025569 -290.35815582 556.60118374 C-290.36647066 553.86051091 -290.36052627 551.12005577 -290.35466003 548.37937927 C-290.35768007 546.39673609 -290.3615688 544.41409407 -290.3662526 542.43145412 C-290.37656104 536.97839085 -290.3743435 531.52539311 -290.37007201 526.0723244 C-290.36760983 520.19273516 -290.37661281 514.31316191 -290.3841095 508.43357849 C-290.39687434 496.91098154 -290.39864783 485.38840787 -290.39630923 473.86580504 C-290.39447642 464.49774764 -290.39623594 455.12969709 -290.40053368 445.76164055 C-290.40113608 444.41559981 -290.40173728 443.06955907 -290.40233728 441.72351832 C-290.40324454 439.69509356 -290.40415321 437.66666881 -290.40506963 435.63824405 C-290.41350087 416.77481549 -290.41783388 397.91138951 -290.41366291 379.04795933 C-290.41350653 378.33669506 -290.41335016 377.62543078 -290.41318904 376.89261305 C-290.41238327 373.28770068 -290.4115375 369.68278833 -290.41067574 366.07787598 C-290.41050465 365.36194106 -290.41033357 364.64600614 -290.41015729 363.90837622 C-290.40981064 362.4605791 -290.40946211 361.01278198 -290.40911171 359.56498485 C-290.40375856 337.05436526 -290.41167266 314.54378488 -290.43014526 292.03317261 C-290.45088083 266.73535772 -290.46158465 241.43756713 -290.45756978 216.13974327 C-290.45717445 213.43976494 -290.4568129 210.73978661 -290.4564724 208.03980827 C-290.45638167 207.37502009 -290.45629093 206.7102319 -290.45619745 206.02529862 C-290.45503324 196.00537106 -290.461703 185.9854691 -290.47228432 175.96554756 C-290.4842064 164.56039795 -290.48559396 153.15530599 -290.47349415 141.75015558 C-290.46761028 135.93367778 -290.46649238 130.11730539 -290.47849655 124.30083466 C-290.48937194 118.96915333 -290.48623214 113.63766519 -290.47223487 108.30599283 C-290.46959243 106.38398002 -290.47194013 104.46195199 -290.47997073 102.53995413 C-290.58175395 76.34762277 -284.00587527 53.21109748 -266.09396362 33.29855347 C-265.15617065 32.2370105 -265.15617065 32.2370105 -264.19943237 31.15402222 C-249.96602913 15.96173707 -227.4519114 5.0424258 -206.56378937 4.19602966 C-203.50231277 4.1429009 -200.44201408 4.12086894 -197.38009644 4.10910034 C-196.21609818 4.10080704 -195.05209991 4.09251373 -193.85282898 4.08396912 C-191.32661531 4.06659794 -188.80038579 4.05142318 -186.27414703 4.03819275 C-182.23974079 4.01700225 -178.20540954 3.99009995 -174.17105103 3.96151733 C-166.28806075 3.90661361 -158.40503622 3.85859255 -150.52199554 3.81157684 C-107.00017236 3.65279031 -107.00017236 3.65279031 -63.48849487 2.83370972 C-62.18756897 2.79689087 -60.88664307 2.76007202 -59.54629517 2.72213745 C-51.18827321 2.44914908 -42.86778773 1.88542022 -34.53146362 1.23605347 C-23.01536933 0.40110071 -11.54457731 0.05583004 0 0 Z " fill="#000000" transform="translate(473.0939636230469,103.70144653320313)"/>
</svg>
